<svg width="10" height="16" viewBox="0 0 10 16" fill="none" xmlns="http://www.w3.org/2000/svg">
<path d="M0 15.1111V0H5.18095C7.33968 0 9.06668 1.72696 9.06668 3.88569V4.74919C9.06668 5.74223 8.69968 6.67046 8.07367 7.33968C8.93717 8.05205 9.49844 9.13141 9.49844 10.3619V11.2254C9.49844 13.3841 7.77145 15.1111 5.61272 15.1111H0ZM2.15876 12.9524H5.61272C6.58413 12.9524 7.33968 12.1968 7.33968 11.2254V10.3619C7.33968 9.39046 6.58413 8.63491 5.61272 8.63491H2.15876V12.9524ZM2.15876 6.47618H5.18095C6.1524 6.47618 6.90795 5.72064 6.90795 4.74919V3.88569C6.90795 2.91428 6.1524 2.15873 5.18095 2.15873H2.15876V6.47618Z" fill="white" style="fill:white;fill-opacity:1;"/>
</svg>
