<svg width="50" height="50" viewBox="0 0 50 50" fill="none" xmlns="http://www.w3.org/2000/svg">
<path fill-rule="evenodd" clip-rule="evenodd" d="M23.4414 9.17457C23.3569 8.97 23.3134 8.75057 23.3136 8.52914C23.3134 8.30771 23.357 8.08857 23.4416 7.884C23.5264 7.67943 23.6506 7.49357 23.8071 7.337C23.9637 7.18029 24.1496 7.05614 24.3544 6.97129C24.559 6.88657 24.7786 6.84286 25 6.84271C25.2216 6.84271 25.4411 6.88643 25.6459 6.97114C25.8506 7.05586 26.0366 7.18014 26.1933 7.33686C26.35 7.49343 26.4741 7.67929 26.5589 7.88386C26.6436 8.08843 26.6871 8.30771 26.687 8.52914C26.6871 8.75057 26.6437 8.96986 26.5591 9.17457C26.4746 9.37914 26.3503 9.565 26.1936 9.72172C26.037 9.87843 25.8511 10.0027 25.6464 10.0876C25.4416 10.1723 25.2223 10.2161 25.0006 10.2161C24.7789 10.2161 24.5594 10.1724 24.3546 10.0877C24.1499 10.0029 23.9637 9.87857 23.8071 9.722C23.6506 9.56529 23.5263 9.37928 23.4414 9.17457ZM23.6493 5.269C24.0774 5.09157 24.5366 5.00029 25.0003 5C25.464 5.00029 25.9231 5.09171 26.3516 5.269C26.7799 5.44657 27.1691 5.70657 27.4969 6.03443C27.8247 6.36214 28.0846 6.75129 28.2619 7.17943C28.4391 7.60757 28.5301 8.06643 28.5299 8.52971C28.5301 8.993 28.4391 9.45186 28.2619 9.88014C28.0846 10.3083 27.8247 10.6974 27.4969 11.0251C27.1691 11.3529 26.7799 11.6129 26.3516 11.7904C25.923 11.9679 25.4637 12.0593 25 12.0596C24.5363 12.0593 24.077 11.9677 23.6486 11.7901C23.2203 11.6127 22.8311 11.3526 22.5033 11.0247C22.1756 10.6969 21.9157 10.3077 21.7386 9.87957C21.5614 9.45129 21.4704 8.99243 21.4707 8.52914C21.4706 8.066 21.5616 7.60714 21.7389 7.179C21.9163 6.751 22.1761 6.362 22.5039 6.03414C22.8317 5.70657 23.2209 5.44643 23.6493 5.269ZM23.4414 42.1151C23.3569 41.9106 23.3134 41.6911 23.3136 41.4696C23.3134 41.2483 23.357 41.029 23.4416 40.8246C23.5264 40.6199 23.6506 40.434 23.8071 40.2774C23.9637 40.1209 24.1496 39.9966 24.3544 39.9117C24.559 39.827 24.7786 39.7833 25 39.7833C25.2216 39.7833 25.441 39.827 25.6457 39.9117C25.8506 39.9966 26.0364 40.1209 26.1931 40.2774C26.3497 40.434 26.474 40.6199 26.5587 40.8244C26.6436 41.029 26.6871 41.2483 26.687 41.4696C26.6871 41.6911 26.6437 41.9104 26.5591 42.115C26.4746 42.3196 26.3503 42.5054 26.1936 42.6621C26.037 42.8189 25.8511 42.9431 25.6464 43.028C25.4416 43.1129 25.2223 43.1566 25.0006 43.1566C24.7789 43.1566 24.5594 43.113 24.3546 43.0283C24.1499 42.9434 23.9637 42.8191 23.8071 42.6626C23.6506 42.5057 23.5263 42.3197 23.4414 42.1151ZM23.6493 38.2094C24.0774 38.0321 24.5366 37.9406 25.0003 37.9406C25.464 37.9406 25.9231 38.0321 26.3516 38.2094C26.7799 38.387 27.1691 38.6471 27.4969 38.9749C27.8247 39.3026 28.0846 39.6917 28.2619 40.1199C28.4391 40.548 28.5301 41.0069 28.5299 41.4703C28.5301 41.9334 28.4391 42.3924 28.2619 42.8206C28.0846 43.2487 27.8247 43.6379 27.4969 43.9654C27.1691 44.2934 26.7799 44.5534 26.3516 44.7309C25.923 44.9084 25.4637 44.9997 25 45C24.5363 44.9997 24.077 44.9083 23.6486 44.7306C23.2203 44.5531 22.8311 44.293 22.5033 43.9651C22.1756 43.6374 21.9157 43.2483 21.7386 42.82C21.5614 42.3917 21.4704 41.9329 21.4707 41.4696C21.4706 41.0064 21.5616 40.5476 21.7389 40.1196C21.9163 39.6914 22.1761 39.3024 22.5039 38.9746C22.8317 38.647 23.2209 38.3869 23.6493 38.2094ZM40.2887 26.1707C39.9733 25.8614 39.792 25.4409 39.7837 24.9994C39.7836 24.5524 39.9613 24.1237 40.2774 23.8074C40.5936 23.4911 41.0226 23.3134 41.4701 23.313C41.6917 23.313 41.9113 23.3567 42.116 23.4414C42.3207 23.5261 42.5067 23.6504 42.6634 23.807C42.8201 23.9637 42.9443 24.1496 43.029 24.3541C43.1137 24.5587 43.1573 24.778 43.1571 24.9994C43.1489 25.4409 42.9676 25.8614 42.6523 26.1707C42.3367 26.4801 41.9124 26.6534 41.4706 26.6534C41.0284 26.6534 40.6041 26.4801 40.2887 26.1707ZM40.1194 21.7391C40.5477 21.5617 41.007 21.4704 41.4707 21.4703C41.9346 21.4706 42.3934 21.562 42.8219 21.7394C43.2501 21.9169 43.6393 22.1769 43.967 22.5047C44.2947 22.8323 44.5546 23.2214 44.7319 23.6494C44.9091 24.0774 45.0003 24.5363 45 24.9994C45.0003 25.4626 44.9093 25.9214 44.7321 26.3496C44.5549 26.7777 44.295 27.1667 43.9671 27.4946C43.6396 27.8224 43.2504 28.0824 42.822 28.2599C42.3936 28.4374 41.9346 28.5289 41.4707 28.5291C41.007 28.529 40.5477 28.4376 40.1193 28.2601C39.6909 28.0826 39.3016 27.8226 38.9739 27.4947C38.646 27.167 38.3861 26.7779 38.2089 26.3497C38.0316 25.9216 37.9406 25.4627 37.9409 24.9994C37.9406 24.5361 38.0317 24.0774 38.209 23.6493C38.3864 23.2211 38.6463 22.8321 38.974 22.5044C39.3019 22.1767 39.6911 21.9167 40.1194 21.7391ZM6.97086 25.6449C6.88614 25.4403 6.84257 25.2209 6.84286 24.9994C6.84271 24.778 6.88572 24.5587 6.97043 24.3541C7.05514 24.1496 7.17929 23.9637 7.336 23.807C7.49271 23.6504 7.67872 23.5261 7.88343 23.4414C8.08829 23.3567 8.30772 23.313 8.52929 23.313C8.75086 23.313 8.97043 23.3567 9.17514 23.4414C9.37986 23.5261 9.566 23.6504 9.72257 23.807C9.87914 23.9637 10.0034 24.1496 10.0881 24.3541C10.1729 24.5587 10.2163 24.778 10.2163 24.9994C10.2164 25.2209 10.173 25.4401 10.0883 25.6447C10.0037 25.8494 9.87957 26.0353 9.723 26.192C9.56643 26.3486 9.38029 26.4729 9.17572 26.5577C8.971 26.6426 8.75157 26.6863 8.52986 26.6864C8.30829 26.6864 8.08871 26.6427 7.88386 26.558C7.67914 26.4731 7.493 26.3489 7.33629 26.1923C7.17971 26.0356 7.05557 25.8496 6.97086 25.6449ZM7.17857 21.7391C7.60686 21.5619 8.066 21.4704 8.52957 21.4703C8.99329 21.4704 9.45229 21.5619 9.88057 21.7391C10.3089 21.9167 10.6981 22.1767 11.026 22.5044C11.3537 22.8321 11.6137 23.2211 11.791 23.6493C11.9683 24.0774 12.0593 24.5361 12.0591 24.9994C12.0594 25.4627 11.9683 25.9216 11.7911 26.3497C11.614 26.7779 11.354 27.167 11.0261 27.4947C10.6984 27.8226 10.3091 28.0826 9.88072 28.2601C9.45229 28.4376 8.993 28.529 8.52929 28.5291C8.06543 28.5289 7.60643 28.4374 7.178 28.2599C6.74972 28.0824 6.36043 27.8224 6.03286 27.4946C5.705 27.1667 5.44514 26.7777 5.268 26.3496C5.09072 25.9214 4.99971 25.4626 5 24.9994C4.99971 24.5361 5.09086 24.0774 5.26829 23.6493C5.44543 23.2211 5.70543 22.8321 6.03314 22.5044C6.361 22.1767 6.75014 21.9167 7.17857 21.7391ZM12.71 14.9111C12.5053 14.8266 12.3194 14.7023 12.1629 14.5457C11.8466 14.2293 11.669 13.8004 11.669 13.3533C11.669 12.9061 11.8466 12.4773 12.1629 12.1609C12.3194 12.0043 12.5053 11.88 12.71 11.7953C12.9146 11.7106 13.1339 11.667 13.3553 11.667C13.5769 11.667 13.7963 11.7106 14.0009 11.7953C14.2054 11.88 14.3913 12.0043 14.5477 12.1609C14.8641 12.4773 15.0417 12.9061 15.0417 13.3533C15.0417 13.8004 14.8641 14.2293 14.5477 14.5457C14.3913 14.7023 14.2054 14.8266 14.0009 14.9111C13.7963 14.996 13.5769 15.0397 13.3553 15.0397C13.1339 15.0397 12.9146 14.996 12.71 14.9111ZM9.82629 13.3533C9.82629 12.4174 10.198 11.52 10.8597 10.8579C11.1873 10.5301 11.5763 10.2701 12.0046 10.0929C12.4329 9.91543 12.8917 9.82414 13.3553 9.82414C13.819 9.82414 14.278 9.91543 14.7061 10.0929C15.1344 10.2701 15.5236 10.5301 15.851 10.8579C16.5129 11.52 16.8844 12.4174 16.8844 13.3533C16.8844 14.289 16.5129 15.1866 15.851 15.8487C15.5236 16.1764 15.1344 16.4363 14.7061 16.6137C14.278 16.7911 13.819 16.8824 13.3553 16.8824C12.8917 16.8824 12.4329 16.7911 12.0046 16.6137C11.5763 16.4363 11.1873 16.1764 10.8597 15.8487C10.198 15.1866 9.82629 14.289 9.82629 13.3533ZM36.0009 38.2039C35.7964 38.1191 35.6106 37.9951 35.454 37.8386C35.1374 37.5221 34.9597 37.0931 34.9597 36.6459C34.9597 36.1986 35.1374 35.7696 35.454 35.4531C35.6106 35.2966 35.7963 35.1723 36.0009 35.0876C36.2054 35.0029 36.4249 34.9591 36.6464 34.9591C36.8679 34.9591 37.0871 35.0029 37.2917 35.0876C37.4964 35.1723 37.6824 35.2966 37.8389 35.4531C38.1551 35.7696 38.3329 36.1986 38.3329 36.6459C38.3329 37.093 38.1551 37.522 37.8389 37.8386C37.6823 37.9951 37.4964 38.1191 37.2917 38.2039C37.0871 38.2886 36.8679 38.3323 36.6464 38.3323C36.4249 38.3323 36.2054 38.2886 36.0009 38.2039ZM33.117 36.6459C33.117 35.71 33.4889 34.8123 34.1507 34.1501C34.4783 33.8226 34.8673 33.5626 35.2956 33.3851C35.7237 33.2077 36.1827 33.1164 36.6464 33.1164C37.11 33.1164 37.569 33.2077 37.9973 33.3851C38.4254 33.5626 38.8146 33.8226 39.142 34.1501C39.8041 34.8123 40.176 35.71 40.176 36.6459C40.176 37.5817 39.8041 38.4794 39.142 39.1414C38.8146 39.4693 38.4254 39.7293 37.9973 39.9066C37.569 40.084 37.11 40.1753 36.6464 40.1753C36.1827 40.1753 35.7237 40.084 35.2956 39.9066C34.8673 39.7293 34.4783 39.4693 34.1507 39.1414C33.4889 38.4793 33.117 37.5817 33.117 36.6459ZM36.0009 14.9111C35.7963 14.8266 35.6106 14.7023 35.454 14.5457C35.1376 14.2293 34.96 13.8004 34.96 13.3533C34.96 12.9061 35.1376 12.4773 35.454 12.1609C35.6106 12.0043 35.7963 11.88 36.0009 11.7953C36.2054 11.7106 36.4249 11.667 36.6464 11.667C36.8679 11.667 37.0871 11.7106 37.2917 11.7953C37.4964 11.88 37.6824 12.0043 37.8389 12.1609C38.155 12.4774 38.3324 12.9061 38.3324 13.3533C38.3324 13.8003 38.155 14.2291 37.8389 14.5457C37.6824 14.7023 37.4964 14.8266 37.2917 14.9111C37.0871 14.996 36.8679 15.0397 36.6464 15.0397C36.4249 15.0397 36.2054 14.996 36.0009 14.9111ZM33.1173 13.3533C33.1173 12.4174 33.4889 11.52 34.1507 10.8579C34.4783 10.5301 34.8673 10.2701 35.2956 10.0929C35.7237 9.91543 36.1827 9.82414 36.6464 9.82414C37.11 9.82414 37.569 9.91543 37.9973 10.0929C38.4254 10.2701 38.8146 10.5301 39.142 10.8579C39.8039 11.52 40.1757 12.4174 40.1757 13.3533C40.1757 14.289 39.8039 15.1866 39.142 15.8487C38.8146 16.1764 38.4254 16.4363 37.9973 16.6137C37.569 16.7911 37.11 16.8824 36.6464 16.8824C36.1827 16.8824 35.7237 16.7911 35.2956 16.6137C34.8673 16.4363 34.4783 16.1764 34.1507 15.8487C33.4889 15.1866 33.1173 14.289 33.1173 13.3533ZM12.71 38.2041C12.5053 38.1194 12.3194 37.9951 12.1629 37.8386C11.8466 37.5221 11.6687 37.0931 11.6687 36.6459C11.6687 36.1986 11.8466 35.7696 12.1629 35.4531C12.3194 35.2966 12.5053 35.1723 12.71 35.0876C12.9146 35.0029 13.1339 34.9591 13.3553 34.9591C13.5769 34.9591 13.7963 35.0029 14.0009 35.0876C14.2054 35.1723 14.3913 35.2966 14.5477 35.4531C14.8643 35.7696 15.042 36.1986 15.042 36.6459C15.042 37.0931 14.8643 37.5221 14.5477 37.8386C14.3913 37.9951 14.2054 38.1194 14.0009 38.2041C13.7963 38.2889 13.5769 38.3326 13.3553 38.3326C13.1339 38.3326 12.9146 38.2889 12.71 38.2041ZM9.826 36.6459C9.826 35.71 10.1977 34.8123 10.8597 34.1501C11.1873 33.8226 11.5763 33.5626 12.0046 33.3851C12.4329 33.2077 12.8917 33.1164 13.3553 33.1164C13.819 33.1164 14.278 33.2077 14.7061 33.3851C15.1344 33.5626 15.5236 33.8226 15.851 34.1501C16.5129 34.8123 16.8847 35.71 16.8847 36.6459C16.8847 37.5817 16.5129 38.4793 15.851 39.1414C15.5236 39.4693 15.1344 39.7293 14.7061 39.9066C14.278 40.084 13.819 40.1753 13.3553 40.1753C12.8917 40.1753 12.4329 40.084 12.0046 39.9066C11.5763 39.7293 11.1873 39.4693 10.8597 39.1414C10.1977 38.4793 9.826 37.5817 9.826 36.6459ZM21.7389 23.6494C21.5616 24.0774 21.4706 24.5361 21.4707 24.9994C21.4706 25.4626 21.5614 25.922 21.7386 26.3501C21.9159 26.7783 22.1757 27.1674 22.5036 27.4951C22.8313 27.8229 23.2204 28.083 23.6487 28.2606C24.0771 28.438 24.5363 28.5294 25 28.5297C25.4639 28.5296 25.9231 28.4381 26.3516 28.2606C26.7801 28.0831 27.1694 27.823 27.4971 27.4951C27.8249 27.1673 28.0849 26.7781 28.262 26.3499C28.4393 25.9216 28.5303 25.4627 28.5299 24.9994C28.5301 24.5361 28.439 24.0774 28.2617 23.6493C28.0844 23.2211 27.8244 22.8321 27.4967 22.5044C27.1689 22.1767 26.7797 21.9167 26.3514 21.7391C25.923 21.5617 25.4637 21.4704 25 21.4703C24.5363 21.4706 24.0773 21.562 23.6489 21.7394C23.2206 21.9169 22.8316 22.1769 22.5037 22.5047C22.176 22.8323 21.9161 23.2214 21.7389 23.6494ZM23.9129 15.1381C23.8536 15.2809 23.8231 15.4337 23.8231 15.5881V17.941C23.8231 18.0954 23.8536 18.2483 23.9129 18.3909C23.9719 18.5336 24.0586 18.6631 24.1679 18.7723C24.2771 18.8814 24.4069 18.9681 24.5496 19.0271C24.6924 19.0863 24.8454 19.1167 25 19.1167C25.1546 19.1167 25.3076 19.0863 25.4504 19.0271C25.5931 18.9681 25.7229 18.8814 25.8323 18.7723C25.9414 18.6631 26.0281 18.5336 26.0873 18.3909C26.1464 18.2483 26.1769 18.0954 26.1769 17.941V15.5881C26.1769 15.4337 26.1464 15.2809 26.0873 15.1381C26.0281 14.9956 25.9414 14.866 25.8323 14.7569C25.7229 14.6477 25.5931 14.561 25.4504 14.502C25.3076 14.4429 25.1546 14.4124 25 14.4124C24.8454 14.4124 24.6924 14.4429 24.5496 14.502C24.4069 14.561 24.2771 14.6477 24.1679 14.7569C24.0586 14.866 23.9719 14.9956 23.9129 15.1381ZM35.5884 25C35.5884 24.3501 35.0614 23.8231 34.4116 23.8231H32.0591C31.9044 23.8231 31.7514 23.8537 31.6084 23.9129C31.4656 23.9719 31.3359 24.0586 31.2266 24.1679C31.1174 24.2773 31.0306 24.407 30.9716 24.5497C30.9124 24.6926 30.8821 24.8454 30.8824 25C30.8823 25.1544 30.9126 25.3071 30.9717 25.4499C31.0307 25.5926 31.1174 25.7221 31.2266 25.8314C31.3357 25.9407 31.4654 26.0273 31.6083 26.0866C31.751 26.1456 31.904 26.1761 32.0586 26.1763H34.4116C34.5663 26.1763 34.7193 26.1457 34.862 26.0866C35.0049 26.0276 35.1346 25.9409 35.244 25.8317C35.3533 25.7224 35.4399 25.5927 35.499 25.45C35.5581 25.3073 35.5884 25.1544 35.5884 25ZM26.0873 34.8611C26.1464 34.7186 26.1769 34.5656 26.1769 34.4113V32.0583C26.1769 31.9039 26.1464 31.7511 26.0873 31.6084C26.0281 31.4657 25.9414 31.3363 25.8323 31.227C25.7229 31.1179 25.5931 31.0313 25.4504 30.9723C25.3076 30.9131 25.1546 30.8826 25 30.8826C24.8454 30.8826 24.6924 30.9131 24.5496 30.9723C24.4069 31.0313 24.2771 31.1179 24.1679 31.227C24.0586 31.3363 23.9719 31.4657 23.9129 31.6084C23.8536 31.7511 23.8231 31.9039 23.8231 32.0583V34.4113C23.8231 34.5656 23.8536 34.7186 23.9129 34.8611C23.9719 35.0037 24.0586 35.1334 24.1679 35.2426C24.2771 35.3517 24.4069 35.4384 24.5496 35.4974C24.6924 35.5566 24.8454 35.5869 25 35.5869C25.1546 35.5869 25.3076 35.5566 25.4504 35.4974C25.5931 35.4384 25.7229 35.3517 25.8323 35.2426C25.9414 35.1334 26.0281 35.0037 26.0873 34.8611ZM15.1379 26.0866C15.2807 26.1457 15.4339 26.1763 15.5884 26.1763H17.9409C18.2533 26.1763 18.5529 26.0523 18.7736 25.8317C18.9946 25.611 19.1186 25.3117 19.1186 24.9997C19.1186 24.6877 18.9946 24.3884 18.7736 24.1677C18.5529 23.9471 18.2533 23.8231 17.9409 23.8231H15.5884C15.4339 23.8231 15.2809 23.8536 15.138 23.9127C14.9951 23.9717 14.8654 24.0586 14.7561 24.1677C14.6469 24.2769 14.5601 24.4066 14.501 24.5494C14.442 24.692 14.4116 24.8449 14.4117 24.9994C14.4114 25.1539 14.4419 25.3069 14.5009 25.4496C14.5599 25.5924 14.6466 25.7221 14.7559 25.8314C14.8651 25.9407 14.995 26.0274 15.1379 26.0866ZM31.2049 17.2574C31.062 17.3167 30.9324 17.4033 30.8231 17.5126L29.1596 19.1763C28.9387 19.397 28.8149 19.6963 28.8149 20.0083C28.8149 20.3203 28.9387 20.6194 29.1596 20.8401C29.2686 20.9494 29.3984 21.036 29.541 21.0951C29.6837 21.1543 29.8369 21.1847 29.9914 21.1847C30.1459 21.1847 30.2989 21.1543 30.4416 21.0951C30.5843 21.036 30.714 20.9494 30.8231 20.8401L32.487 19.1763C32.9466 18.717 32.9466 17.9723 32.487 17.5126C32.3777 17.4033 32.2481 17.3167 32.1054 17.2574C31.9626 17.1984 31.8096 17.1679 31.6551 17.1679C31.5006 17.1679 31.3476 17.1984 31.2049 17.2574ZM32.1054 32.7414C32.2481 32.6821 32.3777 32.5956 32.487 32.4863C32.9466 32.0271 32.9466 31.2823 32.487 30.8231L30.8231 29.1586C30.714 29.0494 30.5843 28.9627 30.4416 28.9037C30.2989 28.8446 30.1459 28.814 29.9914 28.814C29.8369 28.814 29.6837 28.8446 29.541 28.9037C29.3984 28.9627 29.2686 29.0494 29.1596 29.1586C28.9387 29.3794 28.8149 29.6786 28.8149 29.9906C28.8149 30.3026 28.9387 30.6017 29.1596 30.8226L30.8231 32.4863C30.9324 32.5956 31.062 32.6821 31.2049 32.7414C31.3476 32.8004 31.5006 32.8309 31.6551 32.8309C31.8096 32.8309 31.9626 32.8004 32.1054 32.7414ZM18.7953 32.7414C18.938 32.6821 19.0677 32.5956 19.1769 32.4863L20.8406 30.8231C21.3003 30.3637 21.3003 29.6186 20.8406 29.1591C20.7314 29.05 20.6017 28.9633 20.459 28.9043C20.3163 28.8451 20.1633 28.8146 20.0087 28.8146C19.8541 28.8146 19.7013 28.8451 19.5586 28.9043C19.4157 28.9633 19.286 29.05 19.1769 29.1591L17.513 30.8231C17.2926 31.0437 17.1689 31.3429 17.1689 31.6546C17.1689 31.9666 17.2926 32.2656 17.513 32.4863C17.6223 32.5956 17.7519 32.6821 17.8946 32.7414C18.0374 32.8004 18.1906 32.8309 18.3449 32.8309C18.4996 32.8309 18.6524 32.8004 18.7953 32.7414ZM17.1696 18.3437C17.1696 18.6557 17.2934 18.955 17.5143 19.1757L19.178 20.839C19.2871 20.9483 19.4169 21.0349 19.5596 21.094C19.7024 21.1531 19.8554 21.1836 20.0099 21.1836C20.1644 21.1836 20.3174 21.1531 20.4603 21.094C20.6029 21.0349 20.7326 20.9483 20.8417 20.839C21.3009 20.3803 21.3009 19.635 20.8417 19.1757L19.178 17.5119C19.0689 17.4026 18.9391 17.316 18.7964 17.2569C18.6536 17.1977 18.5006 17.1674 18.3461 17.1674C18.1916 17.1674 18.0386 17.1977 17.8957 17.2569C17.7531 17.316 17.6234 17.4026 17.5143 17.5119C17.2934 17.7327 17.1696 18.0319 17.1696 18.3437Z" fill="black" style="fill:black;fill-opacity:1;"/>
</svg>
