<svg width="22" height="22" viewBox="0 0 22 22" fill="none" xmlns="http://www.w3.org/2000/svg">
<path fill-rule="evenodd" clip-rule="evenodd" d="M10.1428 2.29601C10.0963 2.1835 10.0724 2.06281 10.0725 1.94103C10.0724 1.81924 10.0963 1.69871 10.1429 1.5862C10.1895 1.47369 10.2578 1.37146 10.3439 1.28535C10.43 1.19916 10.5323 1.13088 10.6449 1.08421C10.7574 1.03761 10.8782 1.01357 11 1.01349C11.1219 1.01349 11.2426 1.03754 11.3552 1.08413C11.4678 1.13072 11.5701 1.19908 11.6563 1.28527C11.7425 1.37139 11.8108 1.47361 11.8574 1.58612C11.904 1.69864 11.9279 1.81924 11.9279 1.94103C11.9279 2.06281 11.904 2.18342 11.8575 2.29601C11.811 2.40853 11.7427 2.51075 11.6565 2.59694C11.5704 2.68314 11.4681 2.75149 11.3555 2.79816C11.2429 2.84476 11.1223 2.86888 11.0003 2.86888C10.8784 2.86888 10.7577 2.84484 10.645 2.79824C10.5324 2.75157 10.43 2.68321 10.3439 2.5971C10.2578 2.51091 10.1895 2.40861 10.1428 2.29601ZM10.2571 0.14795C10.4926 0.0503644 10.7451 0.000157143 11.0002 0C11.2552 0.000157143 11.5077 0.050443 11.7434 0.14795C11.9789 0.245614 12.193 0.388614 12.3733 0.568936C12.5536 0.749179 12.6965 0.963207 12.794 1.19869C12.8915 1.43416 12.9416 1.68654 12.9414 1.94134C12.9416 2.19615 12.8915 2.44852 12.794 2.68408C12.6965 2.91956 12.5536 3.13359 12.3733 3.31383C12.193 3.49407 11.9789 3.63707 11.7434 3.73474C11.5076 3.83232 11.255 3.88261 11 3.88276C10.745 3.88261 10.4924 3.83224 10.2567 3.73458C10.0212 3.63699 9.80713 3.49391 9.62681 3.31359C9.44656 3.13327 9.30364 2.91924 9.20621 2.68376C9.10878 2.44821 9.05873 2.19584 9.05889 1.94103C9.05881 1.6863 9.10886 1.43393 9.20637 1.19845C9.30396 0.96305 9.44688 0.7491 9.62712 0.568778C9.80744 0.388614 10.0215 0.245536 10.2571 0.14795ZM10.1428 20.4133C10.0963 20.3008 10.0724 20.1801 10.0725 20.0583C10.0724 19.9366 10.0963 19.816 10.1429 19.7035C10.1895 19.5909 10.2578 19.4887 10.3439 19.4026C10.43 19.3165 10.5323 19.2481 10.6449 19.2014C10.7574 19.1549 10.8782 19.1308 11 19.1308C11.1219 19.1308 11.2425 19.1549 11.3551 19.2014C11.4678 19.2481 11.57 19.3165 11.6562 19.4026C11.7423 19.4887 11.8107 19.5909 11.8573 19.7034C11.904 19.8159 11.9279 19.9366 11.9279 20.0583C11.9279 20.1801 11.904 20.3007 11.8575 20.4132C11.811 20.5258 11.7427 20.628 11.6565 20.7142C11.5704 20.8004 11.4681 20.8687 11.3555 20.9154C11.2429 20.9621 11.1223 20.9861 11.0003 20.9861C10.8784 20.9861 10.7577 20.9621 10.645 20.9156C10.5324 20.8689 10.43 20.8005 10.3439 20.7144C10.2578 20.6281 10.1895 20.5258 10.1428 20.4133ZM10.2571 18.2652C10.4926 18.1677 10.7451 18.1173 11.0002 18.1173C11.2552 18.1173 11.5077 18.1677 11.7434 18.2652C11.9789 18.3629 12.193 18.5059 12.3733 18.6862C12.5536 18.8664 12.6965 19.0804 12.794 19.3159C12.8915 19.5514 12.9416 19.8038 12.9414 20.0587C12.9416 20.3134 12.8915 20.5658 12.794 20.8013C12.6965 21.0368 12.5536 21.2508 12.3733 21.431C12.193 21.6114 11.9789 21.7544 11.7434 21.852C11.5076 21.9496 11.255 21.9998 11 22C10.745 21.9998 10.4924 21.9496 10.2567 21.8518C10.0212 21.7542 9.80713 21.6111 9.62681 21.4308C9.44656 21.2506 9.30364 21.0366 9.20621 20.801C9.10878 20.5654 9.05873 20.3131 9.05889 20.0583C9.05881 19.8035 9.10886 19.5512 9.20637 19.3158C9.30396 19.0803 9.44688 18.8663 9.62712 18.686C9.80744 18.5058 10.0215 18.3628 10.2571 18.2652ZM19.4088 11.6439C19.2353 11.4738 19.1356 11.2425 19.131 10.9997C19.131 10.7538 19.2287 10.518 19.4026 10.3441C19.5765 10.1701 19.8124 10.0724 20.0586 10.0721C20.1804 10.0721 20.3012 10.0962 20.4138 10.1428C20.5264 10.1894 20.6287 10.2577 20.7149 10.3438C20.8011 10.43 20.8694 10.5323 20.9159 10.6448C20.9625 10.7573 20.9865 10.8779 20.9864 10.9997C20.9819 11.2425 20.8822 11.4738 20.7088 11.6439C20.5352 11.8141 20.3018 11.9094 20.0588 11.9094C19.8156 11.9094 19.5823 11.8141 19.4088 11.6439ZM19.3157 9.20653C19.5512 9.10894 19.8038 9.05874 20.0589 9.05866C20.314 9.05881 20.5664 9.1091 20.802 9.20669C21.0376 9.30427 21.2516 9.44727 21.4319 9.62759C21.6121 9.80776 21.755 10.0218 21.8525 10.2572C21.95 10.4926 22.0002 10.745 22 10.9997C22.0002 11.2544 21.9501 11.5068 21.8527 11.7423C21.7552 11.9777 21.6122 12.1917 21.4319 12.372C21.2518 12.5523 21.0377 12.6953 20.8021 12.7929C20.5665 12.8906 20.314 12.9409 20.0589 12.941C19.8038 12.9409 19.5512 12.8907 19.3156 12.7931C19.08 12.6954 18.8659 12.5524 18.6856 12.3721C18.5053 12.1918 18.3624 11.9778 18.2649 11.7423C18.1674 11.5069 18.1173 11.2545 18.1175 10.9997C18.1173 10.7449 18.1674 10.4926 18.2649 10.2571C18.3625 10.0216 18.5055 9.80768 18.6857 9.62744C18.866 9.44719 19.0801 9.30419 19.3157 9.20653ZM1.08397 11.3547C1.03738 11.2422 1.01341 11.1215 1.01357 10.9997C1.01349 10.8779 1.03714 10.7573 1.08374 10.6448C1.13033 10.5323 1.19861 10.43 1.2848 10.3438C1.37099 10.2577 1.47329 10.1894 1.58589 10.1428C1.69856 10.0962 1.81924 10.0721 1.94111 10.0721C2.06297 10.0721 2.18374 10.0962 2.29633 10.1428C2.40892 10.1894 2.5113 10.2577 2.59741 10.3438C2.68353 10.43 2.75189 10.5323 2.79848 10.6448C2.84507 10.7573 2.86896 10.8779 2.86896 10.9997C2.86904 11.1215 2.84515 11.2421 2.79856 11.3546C2.75204 11.4672 2.68377 11.5694 2.59765 11.6556C2.51154 11.7417 2.40916 11.8101 2.29664 11.8567C2.18405 11.9034 2.06336 11.9275 1.94142 11.9275C1.81956 11.9275 1.69879 11.9035 1.58612 11.8569C1.47353 11.8102 1.37115 11.7419 1.28496 11.6558C1.19884 11.5696 1.13056 11.4673 1.08397 11.3547ZM1.19821 9.20653C1.43377 9.10902 1.6863 9.05874 1.94126 9.05866C2.19631 9.05874 2.44876 9.10902 2.68432 9.20653C2.91987 9.30419 3.13398 9.44719 3.3143 9.62744C3.49454 9.80768 3.63754 10.0216 3.73505 10.2571C3.83256 10.4926 3.88261 10.7449 3.88253 10.9997C3.88269 11.2545 3.83256 11.5069 3.73513 11.7423C3.6377 11.9778 3.4947 12.1918 3.31438 12.3721C3.13414 12.5524 2.92003 12.6954 2.68439 12.7931C2.44876 12.8907 2.19615 12.9409 1.94111 12.941C1.68599 12.9409 1.43354 12.8906 1.1979 12.7929C0.962343 12.6953 0.748236 12.5523 0.568071 12.372C0.38775 12.1917 0.244829 11.9777 0.1474 11.7423C0.0498933 11.5068 -0.000156774 11.2544 3.6889e-07 10.9997C-0.000156774 10.7449 0.0499721 10.4926 0.147558 10.2571C0.244986 10.0216 0.387986 9.80768 0.568229 9.62744C0.74855 9.44719 0.962579 9.30419 1.19821 9.20653ZM4.2405 5.45113C4.12791 5.40461 4.02569 5.33626 3.93957 5.25014C3.76561 5.07611 3.66795 4.84024 3.66795 4.59431C3.66795 4.34838 3.76561 4.11251 3.93957 3.93847C4.02569 3.85236 4.12791 3.784 4.2405 3.73741C4.35301 3.69081 4.47362 3.66685 4.59541 3.66685C4.71727 3.66685 4.83796 3.69081 4.95047 3.73741C5.06299 3.784 5.16521 3.85236 5.25124 3.93847C5.42528 4.11251 5.52294 4.34838 5.52294 4.59431C5.52294 4.84024 5.42528 5.07611 5.25124 5.25014C5.16521 5.33626 5.06299 5.40461 4.95047 5.45113C4.83796 5.4978 4.71727 5.52184 4.59541 5.52184C4.47362 5.52184 4.35301 5.4978 4.2405 5.45113ZM2.65446 4.59431C2.65446 4.07959 2.8589 3.586 3.22284 3.22182C3.40301 3.04158 3.61696 2.89858 3.85251 2.80107C4.08807 2.70349 4.34044 2.65328 4.59541 2.65328C4.85045 2.65328 5.1029 2.70349 5.33838 2.80107C5.57394 2.89858 5.78796 3.04158 5.96805 3.22182C6.33207 3.586 6.53644 4.07959 6.53644 4.59431C6.53644 5.10895 6.33207 5.60261 5.96805 5.96679C5.78796 6.14704 5.57394 6.28996 5.33838 6.38754C5.1029 6.48513 4.85045 6.53534 4.59541 6.53534C4.34044 6.53534 4.08807 6.48513 3.85251 6.38754C3.61696 6.28996 3.40301 6.14704 3.22284 5.96679C2.8589 5.60261 2.65446 5.10895 2.65446 4.59431ZM17.0505 18.2621C16.938 18.2155 16.8358 18.1473 16.7497 18.0612C16.5756 17.8872 16.4778 17.6512 16.4778 17.4052C16.4778 17.1592 16.5756 16.9233 16.7497 16.7492C16.8358 16.6631 16.938 16.5948 17.0505 16.5482C17.163 16.5016 17.2837 16.4775 17.4055 16.4775C17.5273 16.4775 17.6479 16.5016 17.7604 16.5482C17.873 16.5948 17.9753 16.6631 18.0614 16.7492C18.2353 16.9233 18.3331 17.1592 18.3331 17.4052C18.3331 17.6511 18.2353 17.8871 18.0614 18.0612C17.9753 18.1473 17.873 18.2155 17.7604 18.2621C17.6479 18.3087 17.5273 18.3328 17.4055 18.3328C17.2837 18.3328 17.163 18.3087 17.0505 18.2621ZM15.4643 17.4052C15.4643 16.8905 15.6689 16.3968 16.0329 16.0326C16.2131 15.8524 16.427 15.7094 16.6626 15.6118C16.898 15.5142 17.1505 15.464 17.4055 15.464C17.6605 15.464 17.9129 15.5142 18.1485 15.6118C18.384 15.7094 18.598 15.8524 18.7781 16.0326C19.1423 16.3968 19.3468 16.8905 19.3468 17.4052C19.3468 17.9199 19.1423 18.4137 18.7781 18.7778C18.598 18.9581 18.384 19.1011 18.1485 19.1986C17.9129 19.2962 17.6605 19.3464 17.4055 19.3464C17.1505 19.3464 16.898 19.2962 16.6626 19.1986C16.427 19.1011 16.2131 18.9581 16.0329 18.7778C15.6689 18.4136 15.4643 17.9199 15.4643 17.4052ZM17.0505 5.45113C16.938 5.40461 16.8358 5.33626 16.7497 5.25014C16.5757 5.07611 16.478 4.84024 16.478 4.59431C16.478 4.34838 16.5757 4.11251 16.7497 3.93847C16.8358 3.85236 16.938 3.784 17.0505 3.73741C17.163 3.69081 17.2837 3.66685 17.4055 3.66685C17.5273 3.66685 17.6479 3.69081 17.7604 3.73741C17.873 3.784 17.9753 3.85236 18.0614 3.93847C18.2353 4.11259 18.3328 4.34838 18.3328 4.59431C18.3328 4.84016 18.2353 5.07603 18.0614 5.25014C17.9753 5.33626 17.873 5.40461 17.7604 5.45113C17.6479 5.4978 17.5273 5.52184 17.4055 5.52184C17.2837 5.52184 17.163 5.4978 17.0505 5.45113ZM15.4645 4.59431C15.4645 4.07959 15.6689 3.586 16.0329 3.22182C16.2131 3.04158 16.427 2.89858 16.6626 2.80107C16.898 2.70349 17.1505 2.65328 17.4055 2.65328C17.6605 2.65328 17.9129 2.70349 18.1485 2.80107C18.384 2.89858 18.598 3.04158 18.7781 3.22182C19.1421 3.586 19.3466 4.07959 19.3466 4.59431C19.3466 5.10895 19.1421 5.60261 18.7781 5.96679C18.598 6.14704 18.384 6.28996 18.1485 6.38754C17.9129 6.48513 17.6605 6.53534 17.4055 6.53534C17.1505 6.53534 16.898 6.48513 16.6626 6.38754C16.427 6.28996 16.2131 6.14704 16.0329 5.96679C15.6689 5.60261 15.4645 5.10895 15.4645 4.59431ZM4.2405 18.2623C4.12791 18.2157 4.02569 18.1473 3.93957 18.0612C3.76561 17.8872 3.66779 17.6512 3.66779 17.4052C3.66779 17.1592 3.76561 16.9233 3.93957 16.7492C4.02569 16.6631 4.12791 16.5948 4.2405 16.5482C4.35301 16.5016 4.47362 16.4775 4.59541 16.4775C4.71727 16.4775 4.83796 16.5016 4.95047 16.5482C5.06299 16.5948 5.16521 16.6631 5.25124 16.7492C5.42536 16.9233 5.5231 17.1592 5.5231 17.4052C5.5231 17.6512 5.42536 17.8872 5.25124 18.0612C5.16521 18.1473 5.06299 18.2157 4.95047 18.2623C4.83796 18.3089 4.71727 18.3329 4.59541 18.3329C4.47362 18.3329 4.35301 18.3089 4.2405 18.2623ZM2.6543 17.4052C2.6543 16.8905 2.85874 16.3968 3.22284 16.0326C3.40301 15.8524 3.61696 15.7094 3.85251 15.6118C4.08807 15.5142 4.34044 15.464 4.59541 15.464C4.85045 15.464 5.1029 15.5142 5.33838 15.6118C5.57394 15.7094 5.78796 15.8524 5.96805 16.0326C6.33207 16.3968 6.53659 16.8905 6.53659 17.4052C6.53659 17.9199 6.33207 18.4136 5.96805 18.7778C5.78796 18.9581 5.57394 19.1011 5.33838 19.1986C5.1029 19.2962 4.85045 19.3464 4.59541 19.3464C4.34044 19.3464 4.08807 19.2962 3.85251 19.1986C3.61696 19.1011 3.40301 18.9581 3.22284 18.7778C2.85874 18.4136 2.6543 17.9199 2.6543 17.4052ZM9.20637 10.2572C9.10886 10.4926 9.05881 10.7449 9.05889 10.9997C9.05881 11.2544 9.10878 11.5071 9.20621 11.7426C9.30372 11.9781 9.44664 12.1921 9.62696 12.3723C9.80721 12.5526 10.0212 12.6956 10.2568 12.7933C10.4924 12.8909 10.745 12.9412 11 12.9413C11.2551 12.9413 11.5077 12.891 11.7434 12.7933C11.9791 12.6957 12.1932 12.5526 12.3734 12.3723C12.5537 12.192 12.6967 11.978 12.7941 11.7424C12.8916 11.5069 12.9417 11.2545 12.9414 10.9997C12.9416 10.7449 12.8914 10.4926 12.7939 10.2571C12.6964 10.0216 12.5534 9.80768 12.3732 9.62744C12.1929 9.44719 11.9788 9.30419 11.7433 9.20653C11.5076 9.10894 11.255 9.05874 11 9.05866C10.745 9.05881 10.4925 9.1091 10.2569 9.20669C10.0213 9.30427 9.80736 9.44727 9.62704 9.62759C9.4468 9.80776 9.30388 10.0218 9.20637 10.2572ZM10.4021 5.57598C10.3695 5.65447 10.3527 5.73854 10.3527 5.82348V7.11755C10.3527 7.20249 10.3695 7.28656 10.4021 7.36497C10.4345 7.44346 10.4822 7.51473 10.5423 7.57476C10.6024 7.63479 10.6738 7.68248 10.7523 7.71493C10.8308 7.74746 10.915 7.76419 11 7.76419C11.085 7.76419 11.1692 7.74746 11.2477 7.71493C11.3262 7.68248 11.3976 7.63479 11.4578 7.57476C11.5178 7.51473 11.5655 7.44346 11.598 7.36497C11.6305 7.28656 11.6473 7.20249 11.6473 7.11755V5.82348C11.6473 5.73854 11.6305 5.65447 11.598 5.57598C11.5655 5.49756 11.5178 5.4263 11.4578 5.36627C11.3976 5.30624 11.3262 5.25855 11.2477 5.2261C11.1692 5.19357 11.085 5.17684 11 5.17684C10.915 5.17684 10.8308 5.19357 10.7523 5.2261C10.6738 5.25855 10.6024 5.30624 10.5423 5.36627C10.4822 5.4263 10.4345 5.49756 10.4021 5.57598ZM16.8236 11C16.8236 10.6426 16.5338 10.3527 16.1764 10.3527H14.8825C14.7974 10.3527 14.7133 10.3695 14.6346 10.4021C14.5561 10.4345 14.4847 10.4822 14.4246 10.5423C14.3646 10.6025 14.3168 10.6738 14.2844 10.7523C14.2518 10.8309 14.2352 10.915 14.2353 11C14.2353 11.0849 14.2519 11.1689 14.2844 11.2474C14.3169 11.3259 14.3646 11.3972 14.4246 11.4573C14.4846 11.5174 14.556 11.565 14.6346 11.5976C14.7131 11.6301 14.7972 11.6469 14.8822 11.647H16.1764C16.2615 11.647 16.3456 11.6301 16.4241 11.5976C16.5027 11.5652 16.574 11.5175 16.6342 11.4574C16.6943 11.3973 16.7419 11.326 16.7744 11.2475C16.807 11.169 16.8236 11.0849 16.8236 11ZM11.598 16.4236C11.6305 16.3452 11.6473 16.2611 11.6473 16.1762V14.8821C11.6473 14.7971 11.6305 14.7131 11.598 14.6346C11.5655 14.5561 11.5178 14.485 11.4578 14.4248C11.3976 14.3648 11.3262 14.3172 11.2477 14.2848C11.1692 14.2522 11.085 14.2354 11 14.2354C10.915 14.2354 10.8308 14.2522 10.7523 14.2848C10.6738 14.3172 10.6024 14.3648 10.5423 14.4248C10.4822 14.485 10.4345 14.5561 10.4021 14.6346C10.3695 14.7131 10.3527 14.7971 10.3527 14.8821V16.1762C10.3527 16.2611 10.3695 16.3452 10.4021 16.4236C10.4345 16.502 10.4822 16.5734 10.5423 16.6334C10.6024 16.6934 10.6738 16.7411 10.7523 16.7736C10.8308 16.8061 10.915 16.8228 11 16.8228C11.085 16.8228 11.1692 16.8061 11.2477 16.7736C11.3262 16.7411 11.3976 16.6934 11.4578 16.6334C11.5178 16.5734 11.5655 16.502 11.598 16.4236ZM5.57582 11.5976C5.65439 11.6301 5.73862 11.647 5.82364 11.647H7.11747C7.28931 11.647 7.45407 11.5788 7.57546 11.4574C7.69701 11.336 7.76521 11.1714 7.76521 10.9998C7.76521 10.8282 7.69701 10.6636 7.57546 10.5422C7.45407 10.4209 7.28931 10.3527 7.11747 10.3527H5.82364C5.73862 10.3527 5.65447 10.3695 5.5759 10.402C5.49733 10.4344 5.42599 10.4822 5.36588 10.5422C5.30577 10.6023 5.25808 10.6736 5.22555 10.7522C5.1931 10.8306 5.17636 10.9147 5.17644 10.9997C5.17629 11.0846 5.19302 11.1688 5.22547 11.2473C5.25792 11.3258 5.30561 11.3972 5.36572 11.4573C5.42583 11.5174 5.49725 11.5651 5.57582 11.5976ZM14.4127 6.74159C14.3341 6.77419 14.2628 6.82181 14.2027 6.88191L13.2878 7.79696C13.1663 7.91835 13.0982 8.08296 13.0982 8.25456C13.0982 8.42616 13.1663 8.59069 13.2878 8.71208C13.3477 8.77219 13.4191 8.8198 13.4975 8.85233C13.576 8.88486 13.6603 8.90159 13.7453 8.90159C13.8302 8.90159 13.9144 8.88486 13.9929 8.85233C14.0714 8.8198 14.1427 8.77219 14.2027 8.71208L15.1178 7.79696C15.3706 7.54435 15.3706 7.13476 15.1178 6.88191C15.0577 6.82181 14.9865 6.77419 14.908 6.74159C14.8294 6.70914 14.7453 6.69232 14.6603 6.69232C14.5753 6.69232 14.4912 6.70914 14.4127 6.74159ZM14.908 15.2578C14.9865 15.2252 15.0577 15.1776 15.1178 15.1175C15.3706 14.8649 15.3706 14.4553 15.1178 14.2027L14.2027 13.2872C14.1427 13.2272 14.0714 13.1795 13.9929 13.147C13.9144 13.1145 13.8302 13.0977 13.7453 13.0977C13.6603 13.0977 13.576 13.1145 13.4975 13.147C13.4191 13.1795 13.3477 13.2272 13.2878 13.2872C13.1663 13.4087 13.0982 13.5732 13.0982 13.7448C13.0982 13.9164 13.1663 14.0809 13.2878 14.2024L14.2027 15.1175C14.2628 15.1776 14.3341 15.2252 14.4127 15.2578C14.4912 15.2902 14.5753 15.307 14.6603 15.307C14.7453 15.307 14.8294 15.2902 14.908 15.2578ZM7.58741 15.2578C7.6659 15.2252 7.73724 15.1776 7.79727 15.1175L8.71231 14.2027C8.96516 13.95 8.96516 13.5402 8.71231 13.2875C8.65229 13.2275 8.58094 13.1798 8.50245 13.1474C8.42396 13.1148 8.33981 13.098 8.25479 13.098C8.16978 13.098 8.08571 13.1148 8.00721 13.1474C7.92864 13.1798 7.8573 13.2275 7.79727 13.2875L6.88215 14.2027C6.76091 14.324 6.69287 14.4886 6.69287 14.66C6.69287 14.8316 6.76091 14.9961 6.88215 15.1175C6.94226 15.1776 7.01352 15.2252 7.09201 15.2578C7.17059 15.2902 7.25481 15.307 7.33967 15.307C7.42476 15.307 7.50884 15.2902 7.58741 15.2578ZM6.69326 7.33904C6.69326 7.51064 6.76139 7.67525 6.88286 7.79664L7.7979 8.71145C7.85793 8.77156 7.92927 8.81917 8.00776 8.8517C8.08634 8.88423 8.17049 8.90096 8.25542 8.90096C8.34044 8.90096 8.42459 8.88423 8.50316 8.8517C8.58157 8.81917 8.65291 8.77156 8.71294 8.71145C8.96547 8.45916 8.96547 8.04925 8.71294 7.79664L7.7979 6.88152C7.73787 6.82141 7.66653 6.7738 7.58804 6.74127C7.50946 6.70874 7.42531 6.69209 7.34038 6.69209C7.25536 6.69209 7.17121 6.70874 7.09264 6.74127C7.01423 6.7738 6.94289 6.82141 6.88286 6.88152C6.76139 7.00299 6.69326 7.16752 6.69326 7.33904Z" fill="white" style="fill:white;fill-opacity:1;"/>
</svg>
