<svg width="50" height="50" viewBox="0 0 50 50" fill="none" xmlns="http://www.w3.org/2000/svg">
<path d="M21.9104 9H10.7563C8.68171 9 7 10.696 7 12.7881V19.8786C7 21.9707 8.68171 23.6667 10.7563 23.6667H21.9104C23.9849 23.6667 25.6666 21.9707 25.6666 19.8786V12.7881C25.6666 10.696 23.9849 9 21.9104 9Z" fill="white" style="fill:white;fill-opacity:1;"/>
<path d="M35.6666 23.6667C39.7167 23.6667 42.9999 20.3833 42.9999 16.3333C42.9999 12.2832 39.7167 9 35.6666 9C31.6166 9 28.3333 12.2832 28.3333 16.3333C28.3333 20.3833 31.6166 23.6667 35.6666 23.6667Z" fill="white" style="fill:white;fill-opacity:1;"/>
<path d="M28.0716 41H39.2617C41.3263 41 42.9999 39.3121 42.9999 37.2301V30.1034C42.9999 28.0213 41.3263 26.3333 39.2617 26.3333H28.0716C26.007 26.3333 24.3333 28.0213 24.3333 30.1034V37.2301C24.3333 39.3121 26.007 41 28.0716 41Z" fill="white" style="fill:white;fill-opacity:1;"/>
<path d="M14.3333 41C18.3833 41 21.6667 37.7167 21.6667 33.6667C21.6667 29.6165 18.3833 26.3333 14.3333 26.3333C10.2832 26.3333 7 29.6165 7 33.6667C7 37.7167 10.2832 41 14.3333 41Z" fill="white" style="fill:white;fill-opacity:1;"/>
</svg>
