<svg width="18" height="16" viewBox="0 0 18 16" fill="none" xmlns="http://www.w3.org/2000/svg">
<path d="M7.45522 0H1.87817C0.840858 0 0 0.847993 0 1.89405V5.43928C0 6.48534 0.840858 7.33333 1.87817 7.33333H7.45522C8.49247 7.33333 9.33332 6.48534 9.33332 5.43928V1.89405C9.33332 0.847993 8.49247 0 7.45522 0Z" fill="white" style="fill:white;fill-opacity:1;"/>
<path d="M14.3333 7.33333C16.3584 7.33333 18 5.69166 18 3.66666C18 1.6416 16.3584 0 14.3333 0C12.3083 0 10.6667 1.6416 10.6667 3.66666C10.6667 5.69166 12.3083 7.33333 14.3333 7.33333Z" fill="white" style="fill:white;fill-opacity:1;"/>
<path d="M10.5359 16H16.1309C17.1632 16 18 15.1561 18 14.115V10.5517C18 9.51063 17.1632 8.66663 16.1309 8.66663H10.5359C9.50356 8.66663 8.66669 9.51063 8.66669 10.5517V14.115C8.66669 15.1561 9.50356 16 10.5359 16Z" fill="white" style="fill:white;fill-opacity:1;"/>
<path d="M3.66666 16C5.69166 16 7.33333 14.3584 7.33333 12.3334C7.33333 10.3082 5.69166 8.66663 3.66666 8.66663C1.6416 8.66663 0 10.3082 0 12.3334C0 14.3584 1.6416 16 3.66666 16Z" fill="white" style="fill:white;fill-opacity:1;"/>
</svg>
