<svg width="34" height="32" viewBox="0 0 34 32" fill="none" xmlns="http://www.w3.org/2000/svg">
<path fill-rule="evenodd" clip-rule="evenodd" d="M5.58846 14.431L4.38355 18.176H12.3148L12.6864 17.0209C13.6438 14.0454 14.2683 12.123 14.9029 10.7162C15.4968 9.39948 15.9437 8.9048 16.3495 8.60516C16.7554 8.30552 17.3559 8.02692 18.7688 7.86202C20.2782 7.68586 22.2654 7.68002 25.3382 7.68002L31.5572 7.68001L34 5.04519e-06L25.1346 6.14805e-06C22.3228 -0.000124229 19.9003 -0.000236511 17.9112 0.231896C15.7778 0.480884 13.7643 1.03003 11.9278 2.3859C10.0913 3.74177 8.95198 5.52042 8.05513 7.50871C7.21899 9.36241 6.46436 11.7082 5.58846 14.431ZM31.2359 2.04801L25.1346 2.04801C22.2833 2.04787 19.99 2.05068 18.1399 2.2666C16.1983 2.49319 14.5618 2.97027 13.1069 4.04437C11.6521 5.11847 10.6974 6.55459 9.88119 8.36405C9.10347 10.0882 8.38639 12.308 7.49819 15.069L7.15747 16.128H10.8587C11.7579 13.3343 12.4033 11.3541 13.0768 9.86089C13.7518 8.36441 14.3834 7.5277 15.1704 6.94669C15.9574 6.36568 16.9344 6.01472 18.5401 5.82732C20.1906 5.63469 22.3137 5.63202 25.3382 5.63201L30.096 5.63201L31.2359 2.04801ZM28.4994 17.569L29.7043 13.824H21.7731L21.4014 14.9791C20.4441 17.9546 19.8195 19.877 19.185 21.2838C18.591 22.6005 18.1442 23.0952 17.7383 23.3948C17.3325 23.6945 16.732 23.9731 15.3191 24.138C13.8096 24.3141 11.8225 24.32 8.74963 24.32L2.44276 24.32L0 32L8.95323 32C11.7651 32.0001 14.1876 32.0002 16.1766 31.7681C18.3101 31.5191 20.3236 30.97 22.16 29.6141C23.9965 28.2582 25.1359 26.4796 26.0327 24.4913C26.8689 22.6376 27.6235 20.2918 28.4994 17.569ZM2.76407 29.952L8.95323 29.952C11.8045 29.9521 14.0979 29.9493 15.9479 29.7334C17.8895 29.5068 19.5261 29.0297 20.9809 27.9556C22.4357 26.8815 23.3905 25.4454 24.2067 23.6359C24.9844 21.9118 25.7014 19.6921 26.5896 16.9311L26.9304 15.872H23.2291C22.33 18.6657 21.6846 20.6459 21.011 22.1391C20.336 23.6356 19.7044 24.4723 18.9174 25.0533C18.1305 25.6343 17.1535 25.9853 15.5478 26.1727C13.8972 26.3653 11.7741 26.368 8.74963 26.368L3.90402 26.368L2.76407 29.952Z" fill="#A4F0FA" style="fill:#A4F0FA;fill:color(display-p3 0.6438 0.9419 0.9812);fill-opacity:1;"/>
</svg>
